<svg xmlns="http://www.w3.org/2000/svg" viewBox="0 0 200 200" width="200" height="200">
  <!-- Sky background -->
  <circle cx="100" cy="100" r="96" fill="#FFF8F0" stroke="#A0C4FF" stroke-width="3"/>

  <!-- Balloon envelope -->
  <ellipse cx="100" cy="72" rx="42" ry="50" fill="#FF9A9E"/>
  <!-- Balloon stripes -->
  <path d="M68 52 C80 45, 90 42, 100 42 C110 42, 120 45, 132 52 L128 62 C118 56, 110 53, 100 53 C90 53, 82 56, 72 62 Z" fill="#A0C4FF" opacity="0.7"/>
  <path d="M65 72 C75 65, 87 62, 100 62 C113 62, 125 65, 135 72 L133 82 C123 76, 113 73, 100 73 C87 73, 77 76, 67 82 Z" fill="#FDFD96" opacity="0.7"/>
  <path d="M67 92 C77 86, 88 83, 100 83 C112 83, 123 86, 133 92 L130 100 C122 95, 112 93, 100 93 C88 93, 78 95, 70 100 Z" fill="#A8E6CF" opacity="0.7"/>

  <!-- Ropes -->
  <line x1="78" y1="118" x2="86" y2="142" stroke="#3D3D3D" stroke-width="1.5"/>
  <line x1="122" y1="118" x2="114" y2="142" stroke="#3D3D3D" stroke-width="1.5"/>
  <line x1="100" y1="122" x2="100" y2="142" stroke="#3D3D3D" stroke-width="1.5"/>

  <!-- Basket -->
  <rect x="82" y="142" width="36" height="22" rx="4" fill="#C89B6E" stroke="#3D3D3D" stroke-width="1.5"/>
  <line x1="82" y1="150" x2="118" y2="150" stroke="#3D3D3D" stroke-width="1"/>

  <!-- Small stars -->
  <circle cx="38" cy="38" r="2.5" fill="#FDFD96"/>
  <circle cx="158" cy="28" r="2" fill="#FDFD96"/>
  <circle cx="26" cy="80" r="1.5" fill="#FDFD96"/>
  <circle cx="170" cy="70" r="2" fill="#FDFD96"/>
  <circle cx="150" cy="120" r="1.5" fill="#FDFD96"/>
  <circle cx="45" cy="130" r="2" fill="#FDFD96"/>
</svg>
