<svg xmlns="http://www.w3.org/2000/svg" viewBox="0 0 128 128" role="img" aria-label="Two meerkats gazing up at stars">
  <!-- Stargazer Innovations — interim logo.
       Night-sky badge: ink circle, cream meerkats, gold starfield
       (size hierarchy + irregular clusters, per starfield illustration practice). -->
  <defs>
    <path id="kat" fill="currentColor" fill-rule="evenodd" d="
      M340.106,173.494c0.099,3.459,0.343,7.498,0.807,11.229c0.464,3.73,1.147,7.154,2.093,11.278c0.21,0.917,0.433,1.868,0.641,2.851
      c0.572,2.201,1.157,4.398,1.707,6.597c1.694,6.778,3.05,13.555,1.693,21.35c-1.354,7.795-5.422,16.606-8.98,31.178
      c-3.558,14.573-6.607,34.905-8.133,57.103c-1.525,22.197-1.525,46.259-0.339,69.473s3.559,45.581,5.761,62.864
      c2.203,17.283,4.236,29.484,8.049,42.022c3.813,12.539,9.404,25.418,15.42,39.228s12.455,28.552,21.012,48.885
      c8.557,20.334,19.232,46.259,28.298,63.458c9.065,17.198,16.521,25.671,24.569,31.008c8.049,5.338,16.69,7.541,26.264,8.642
      c9.574,1.102,20.08,1.102,31.094-3.05s22.536-12.454,32.873-22.027c10.336-9.574,19.485-20.419,19.231-14.912
      c-0.254,5.508-9.913,27.366-24.315,41.43c-14.403,14.064-33.55,20.334-51.342,23.045s-34.229,1.864-48.292-5.168
      c-14.064-7.032-25.756-20.249-38.126-40.921c-12.369-20.673-25.417-48.801-34.906-66.084c-9.488-17.283-15.419-23.723-20.587-23.978
      c-5.168-0.254-9.574,5.678-12.963,15.59c-3.389,9.913-5.761,23.807-6.184,37.362c-0.424,13.556,1.101,26.773,3.642,35.075
      c2.542,8.304,6.101,11.692,5.593,20.08c-0.509,8.388-5.084,21.773-10.591,34.059c-5.507,12.284-11.946,23.468-17.283,30.415
      c-5.338,6.947-9.574,9.658-15.335,11.692c-5.761,2.033-13.047,3.389-19.74,3.219c-6.693-0.169-12.793-1.863-15.843-4.49
      c-3.05-2.626-3.05-6.185-0.847-9.15c2.202-2.965,6.608-5.337,11.438-6.692s10.082-1.695,14.064-3.729
      c3.982-2.032,6.693-5.761,10.59-13.047c3.897-7.286,8.98-18.131,11.184-27.026c2.202-8.896,1.525-15.844-2.457-23.808
      c-3.982-7.964-11.27-16.943-20.334-30.584c-9.066-13.641-19.911-31.94-26.519-46.344c-6.608-14.402-8.98-24.908-9.319-38.294
      s1.355-29.653,3.22-43.209c1.864-13.556,3.897-24.4-1.525-40.328s-18.3-36.938-20.672-67.27
      c-1.765-22.569,2.287-50.297,6.011-73.272c1.103-6.81-5.971,3.948-7.424,6.043c-6.609,9.532-6.327,18.639-7.117,28.192
      c-0.791,9.552-2.655,19.55-6.58,27.485c-3.925,7.936-9.912,13.811-14.063,15.167s-6.468-1.808-8.474-8.643
      c-2.005-6.834-3.699-17.34-4.843-29.159c-1.144-11.819-1.736-24.952-1.185-35.5c0.551-10.548,2.245-18.512,6.83-24.213
      c4.585-5.701,12.061-9.139,21.082-16.373c9.022-7.234,19.59-18.265,25.453-26.536c7.344-10.361,18.424-54.228,21.486-63.815
      c0.373-1.427,0.746-2.854,1.357-5.032c0.555-1.979,1.308-4.58,2.014-6.837c1.414-4.82,3.24-9.541,5.694-13.632
      c4.321-7.202,10.591-12.455,14.319-17.876c3.728-5.422,4.914-11.014,5.761-16.182c0.847-5.168,1.355-9.913,0.677-14.572
      c-0.678-4.66-2.542-9.235-7.71-13.132c-5.168-3.897-13.64-7.117-23.383-11.776c-9.743-4.66-20.757-10.76-27.535-15.081
      c-6.778-4.321-9.32-6.862-11.184-10.506c-1.864-3.643-3.05-8.388-2.373-11.607c0.678-3.22,3.219-4.914,6.608-5.422
      c3.389-0.508,7.625,0.169,15.25-2.033c7.625-2.203,18.639-7.287,27.535-11.438s15.673-7.371,24.824-8.896
      c9.15-1.525,20.672-1.355,31.348-0.169c5.549,0.616,10.869,1.508,15.818,2.698c4.107-2.104,8.163-3.312,13.142-3.74
      c5.607-0.482,12.385,0.026,16.79,3.415c4.406,3.389,6.439,9.658,5.508,15.25c-0.497,2.979-1.836,5.766-3.9,8.117
      c3.23,8.608,4.563,20.43,3.477,32.466c-1.186,13.132-5.253,26.518-7.371,37.956c-0.731,3.948-1.229,7.665-1.574,11.093
      c0.117,2.178-0.078,4.226-0.231,6.131c-0.393,4.853-0.52,8.782-0.657,13.938C340.039,168.618,340.031,170.892,340.106,173.494z"/>
  </defs>

  <!-- night-sky disc -->
  <circle cx="64" cy="64" r="62" fill="#0b0f14"/>

  <!-- both meerkats stand upright on the left, mirrored to face right, cream on ink -->
  <g color="#f5efdf" transform="translate(10 3) scale(0.88)">
    <use href="#kat" transform="translate(60.7 41.7) scale(-0.089 0.089)"/>
    <use href="#kat" transform="translate(82.4 50.4) scale(-0.078 0.078)"/>
  </g>

  <!-- starfield: one hero glint, a few bright golds, many small, tiny dim ones for depth;
       clustered around the glint, trailing down the open right side, sparse elsewhere -->
  <g fill="#e8b23a">
    <!-- hero star -->
    <path d="M96 19 Q97.5 24.5 103 26 Q97.5 27.5 96 33 Q94.5 27.5 89 26 Q94.5 24.5 96 19 Z"/>
    <!-- bright -->
    <circle cx="105" cy="34" r="1.4"/>
    <circle cx="46"  cy="16" r="1.3"/>
    <circle cx="110" cy="70" r="1.2"/>
    <circle cx="74"  cy="12" r="1.1"/>
  </g>
  <g fill="#f2c14e" opacity="0.85">
    <!-- small -->
    <circle cx="88"  cy="18" r="1"/>
    <circle cx="90"  cy="38" r="0.9"/>
    <circle cx="112" cy="46" r="1"/>
    <circle cx="34"  cy="24" r="0.9"/>
    <circle cx="96"  cy="92" r="0.9"/>
    <circle cx="70"  cy="22" r="0.8"/>
  </g>
  <g fill="#f5efdf" opacity="0.55">
    <!-- tiny, dim — background depth -->
    <circle cx="103" cy="20" r="0.7"/>
    <circle cx="99"  cy="44" r="0.6"/>
    <circle cx="60"  cy="10" r="0.7"/>
    <circle cx="24"  cy="34" r="0.6"/>
    <circle cx="114" cy="58" r="0.6"/>
    <circle cx="104" cy="82" r="0.7"/>
    <circle cx="80"  cy="28" r="0.5"/>
    <circle cx="54"  cy="26" r="0.5"/>
    <circle cx="86"  cy="50" r="0.6"/>
    <circle cx="88"  cy="104" r="0.5"/>
  </g>
</svg>
